<svg id="svg" version="1.1" xmlns="http://www.w3.org/2000/svg" xmlns:xlink="http://www.w3.org/1999/xlink" width="400" height="118.88726207906295" viewBox="0, 0, 400,118.88726207906295"><g id="svgg"><path id="path0" d="M239.833 16.830 C 239.479 17.053,239.391 28.186,239.516 57.000 L 239.615 79.917 240.025 81.167 C 240.251 81.854,240.596 82.717,240.792 83.083 C 240.989 83.450,241.246 83.938,241.365 84.167 C 241.613 84.646,241.590 84.614,242.576 85.856 C 242.985 86.373,243.642 87.046,244.035 87.352 C 244.428 87.658,244.787 87.949,244.833 88.000 C 244.994 88.176,245.922 88.743,246.500 89.018 C 248.222 89.836,248.642 90.000,249.026 90.000 C 249.258 90.000,249.815 90.112,250.265 90.248 C 250.954 90.457,252.837 90.497,262.210 90.498 L 273.338 90.500 273.294 84.542 L 273.250 78.583 262.833 78.500 C 251.817 78.412,251.955 78.423,251.678 77.628 C 251.320 76.600,251.441 47.772,251.805 47.442 C 252.082 47.192,253.068 47.167,262.534 47.167 C 271.152 47.167,272.992 47.127,273.148 46.939 C 273.284 46.776,273.325 45.070,273.294 40.980 L 273.250 35.250 262.759 35.207 L 252.269 35.164 251.884 34.803 L 251.500 34.442 251.500 25.830 C 251.500 17.699,251.483 17.203,251.195 16.942 C 250.844 16.625,240.323 16.521,239.833 16.830 M288.167 16.788 C 288.029 16.840,287.862 16.966,287.794 17.067 C 287.610 17.342,287.644 28.540,287.830 28.833 C 288.086 29.239,298.911 29.299,299.355 28.897 C 299.831 28.466,299.838 17.373,299.362 16.942 C 299.056 16.666,288.858 16.525,288.167 16.788 M33.000 21.753 C 29.092 22.182,25.054 24.662,23.433 27.628 C 22.398 29.521,21.890 30.876,21.636 32.417 C 21.271 34.633,21.339 77.907,21.711 79.833 C 22.233 82.537,23.097 84.243,25.128 86.583 C 26.191 87.808,29.998 90.000,31.062 90.000 C 31.274 90.000,31.811 90.109,32.255 90.243 C 33.530 90.627,78.086 90.646,79.146 90.263 C 79.547 90.119,80.122 90.000,80.424 90.000 C 80.726 90.000,81.185 89.897,81.445 89.771 C 81.704 89.644,82.290 89.363,82.747 89.146 C 84.634 88.247,87.593 85.613,88.334 84.174 C 90.222 80.503,90.178 80.980,90.126 64.973 L 90.083 51.750 76.208 51.707 L 62.333 51.665 62.333 57.670 L 62.333 63.675 62.761 63.837 C 63.014 63.934,66.056 64.000,70.224 64.000 C 76.322 64.000,77.309 64.035,77.630 64.259 L 78.000 64.519 78.000 71.072 C 78.000 76.965,77.972 77.649,77.724 77.855 C 77.241 78.256,34.284 78.189,33.881 77.786 C 33.431 77.336,33.327 35.452,33.773 34.454 L 34.055 33.824 55.726 33.840 C 69.333 33.850,77.510 33.916,77.699 34.017 C 77.970 34.162,78.000 34.443,78.000 36.833 C 78.000 40.179,77.288 39.848,84.368 39.794 L 90.083 39.750 90.073 35.917 C 90.063 32.494,90.024 31.967,89.711 31.000 C 89.217 29.473,88.480 27.956,87.944 27.363 C 87.791 27.195,87.667 27.000,87.667 26.931 C 87.667 26.242,82.826 22.500,81.934 22.500 C 81.845 22.500,81.467 22.355,81.094 22.178 C 80.722 22.001,79.892 21.807,79.250 21.748 C 76.839 21.524,35.037 21.529,33.000 21.753 M121.917 35.182 C 117.886 35.270,117.304 35.318,116.333 35.645 C 112.168 37.048,109.293 39.892,107.637 44.250 L 107.257 45.250 107.206 67.875 L 107.154 90.500 113.050 90.500 L 118.946 90.500 119.140 90.075 C 119.283 89.760,119.333 84.217,119.333 68.585 C 119.333 51.916,119.377 47.492,119.542 47.385 C 119.656 47.311,126.725 47.212,135.250 47.167 L 150.750 47.083 150.794 41.204 C 150.828 36.586,150.792 35.309,150.627 35.254 C 150.276 35.135,126.736 35.076,121.917 35.182 M174.250 35.167 L 166.583 35.250 166.539 40.980 C 166.508 45.070,166.550 46.776,166.685 46.939 C 166.843 47.129,170.382 47.167,188.354 47.167 C 209.611 47.167,209.837 47.170,210.167 47.500 C 210.713 48.046,210.680 56.022,210.130 56.407 C 209.799 56.639,207.467 56.667,188.452 56.667 C 174.083 56.667,167.040 56.723,166.822 56.839 C 166.377 57.078,166.320 77.053,166.758 79.771 C 167.194 82.483,168.606 85.049,170.732 86.991 C 171.785 87.953,172.045 88.167,172.161 88.167 C 172.221 88.167,172.419 88.298,172.600 88.458 C 172.781 88.619,173.302 88.925,173.756 89.138 C 174.211 89.351,174.796 89.632,175.055 89.763 C 175.315 89.893,175.734 90.000,175.987 90.000 C 176.240 90.000,176.815 90.116,177.265 90.258 C 178.158 90.540,222.098 90.635,222.378 90.356 C 222.606 90.127,222.447 45.146,222.216 44.667 C 222.105 44.438,221.813 43.725,221.566 43.083 C 221.319 42.442,221.071 41.879,221.016 41.833 C 220.961 41.787,220.628 41.310,220.276 40.771 C 219.703 39.894,217.583 37.667,217.322 37.667 C 217.265 37.667,217.001 37.479,216.734 37.250 C 216.468 37.020,215.987 36.715,215.667 36.571 C 212.353 35.082,214.111 35.199,193.833 35.126 C 187.279 35.103,178.467 35.121,174.250 35.167 M290.250 35.153 L 287.750 35.250 287.708 62.848 L 287.666 90.447 291.375 90.536 C 293.414 90.585,296.096 90.578,297.333 90.521 L 299.583 90.417 299.625 62.878 L 299.668 35.340 299.292 35.262 C 298.624 35.123,292.822 35.053,290.250 35.153 M337.083 35.175 C 326.104 35.266,325.900 35.273,324.932 35.634 C 324.391 35.835,323.847 36.000,323.724 36.000 C 323.601 36.000,323.500 36.067,323.500 36.149 C 323.500 36.230,323.303 36.347,323.061 36.407 C 320.903 36.949,316.333 42.088,316.333 43.974 C 316.333 44.149,316.207 44.583,316.052 44.938 C 315.421 46.386,315.560 57.173,316.242 59.667 C 317.076 62.717,320.088 66.246,322.939 67.513 C 323.385 67.711,323.975 67.975,324.250 68.100 C 324.525 68.225,325.087 68.374,325.500 68.432 C 325.912 68.489,326.571 68.641,326.964 68.768 C 327.553 68.959,330.441 69.000,343.464 69.003 C 353.117 69.004,359.347 69.066,359.500 69.163 C 359.913 69.424,359.869 77.703,359.452 78.119 C 359.171 78.401,358.319 78.417,343.750 78.417 C 326.061 78.417,327.813 78.603,327.697 76.710 C 327.596 75.047,328.064 75.167,321.652 75.167 C 316.012 75.167,316.012 75.167,315.816 75.533 C 315.550 76.030,315.752 79.815,316.087 80.617 C 316.222 80.942,316.333 81.315,316.333 81.446 C 316.333 81.650,316.547 82.201,317.065 83.333 C 317.462 84.200,318.446 85.569,319.272 86.404 C 320.113 87.254,321.835 88.594,322.417 88.852 C 322.600 88.933,322.862 89.069,323.000 89.154 C 323.614 89.536,324.807 90.000,325.178 90.002 C 325.401 90.003,325.996 90.115,326.500 90.250 C 327.910 90.628,359.865 90.635,361.068 90.257 C 361.518 90.116,362.093 90.000,362.346 90.000 C 362.599 90.000,363.019 89.894,363.278 89.764 C 363.538 89.634,363.938 89.446,364.167 89.345 C 364.632 89.141,365.995 88.359,366.528 87.990 C 367.795 87.113,370.254 84.075,370.582 82.982 C 370.648 82.763,370.794 82.433,370.908 82.250 C 371.022 82.067,371.167 81.583,371.231 81.175 C 371.295 80.767,371.435 80.329,371.541 80.201 C 371.673 80.041,371.753 78.456,371.797 75.109 C 371.878 68.837,371.666 66.600,370.813 64.732 C 370.641 64.355,370.500 63.993,370.500 63.927 C 370.500 63.377,367.182 59.333,366.731 59.333 C 366.664 59.333,366.472 59.209,366.304 59.056 C 365.794 58.595,363.700 57.500,363.328 57.500 C 363.222 57.500,362.936 57.395,362.692 57.267 C 361.711 56.750,359.012 56.663,343.900 56.665 C 328.117 56.667,327.921 56.658,327.738 55.927 C 327.464 54.837,327.748 47.641,328.074 47.403 C 328.555 47.051,358.942 47.049,359.422 47.400 C 359.676 47.586,359.755 47.891,359.805 48.885 C 359.861 49.997,359.908 50.148,360.226 50.233 C 360.716 50.364,370.986 50.355,371.482 50.222 L 371.880 50.115 371.764 47.772 C 371.701 46.483,371.584 45.351,371.506 45.256 C 371.427 45.161,371.311 44.783,371.248 44.417 C 370.738 41.460,367.768 37.987,364.333 36.330 C 361.677 35.048,360.182 34.985,337.083 35.175 M210.327 69.322 C 210.571 69.777,210.558 77.357,210.313 77.895 C 210.032 78.512,210.464 78.495,194.367 78.498 L 179.318 78.500 178.909 78.091 L 178.500 77.682 178.500 73.541 C 178.500 70.542,178.555 69.345,178.700 69.200 C 179.097 68.803,210.114 68.923,210.327 69.322 " stroke="none" fill="#0fac6d" fill-rule="evenodd"></path><path id="path1" d="M0.000 59.417 L 0.000 118.833 200.000 118.833 L 400.000 118.833 400.000 59.417 L 400.000 0.000 200.000 0.000 L 0.000 0.000 0.000 59.417 M251.723 16.478 C 251.970 16.683,252.001 17.582,252.040 25.561 L 252.083 34.417 262.697 34.460 L 273.311 34.502 273.662 34.948 C 274.066 35.462,274.133 46.934,273.734 47.333 C 273.606 47.461,270.365 47.526,262.936 47.549 C 253.707 47.579,252.301 47.616,252.163 47.833 C 251.858 48.316,251.954 77.264,252.262 77.571 C 252.494 77.804,253.690 77.834,262.887 77.836 C 268.587 77.837,273.333 77.894,273.433 77.961 C 273.952 78.307,274.000 78.868,274.000 84.572 C 274.000 90.163,273.990 90.343,273.657 90.676 C 273.165 91.169,250.290 91.121,249.383 90.625 C 249.090 90.465,248.677 90.334,248.467 90.334 C 248.136 90.334,247.168 89.944,246.333 89.473 C 246.196 89.396,245.908 89.257,245.694 89.165 C 243.554 88.244,240.641 84.735,239.677 81.917 C 238.834 79.451,238.834 79.447,238.831 57.353 C 238.829 46.021,238.773 36.671,238.706 36.574 C 238.638 36.477,238.337 36.298,238.035 36.176 C 236.773 35.665,236.940 33.167,238.237 33.167 C 238.791 33.167,238.833 32.567,238.836 24.719 C 238.839 16.594,238.836 16.622,239.505 16.348 C 240.176 16.073,251.379 16.192,251.723 16.478 M299.936 16.581 C 300.208 16.954,300.216 29.007,299.944 29.278 C 299.687 29.535,287.590 29.449,287.276 29.188 C 286.973 28.937,286.847 17.166,287.142 16.701 C 287.554 16.051,299.467 15.940,299.936 16.581 M78.667 21.176 C 79.079 21.265,79.829 21.404,80.333 21.486 C 80.837 21.569,81.475 21.755,81.750 21.900 C 82.025 22.046,82.377 22.165,82.532 22.166 C 82.687 22.166,82.854 22.232,82.903 22.312 C 82.953 22.391,83.421 22.673,83.943 22.937 C 84.868 23.403,85.385 23.794,86.674 25.000 C 87.484 25.758,89.167 27.940,89.167 28.232 C 89.167 28.357,89.274 28.549,89.406 28.658 C 89.538 28.767,89.697 29.095,89.761 29.387 C 89.824 29.678,89.979 30.065,90.105 30.245 C 90.230 30.426,90.333 30.811,90.333 31.099 C 90.333 31.388,90.446 31.944,90.583 32.333 C 90.774 32.874,90.833 33.844,90.833 36.426 L 90.833 39.809 90.394 40.155 C 89.970 40.489,89.769 40.500,84.303 40.500 C 76.969 40.500,77.500 40.754,77.500 37.247 C 77.500 34.171,77.498 34.167,75.875 34.167 C 74.405 34.167,73.833 34.426,73.833 35.093 C 73.833 35.761,73.281 36.167,72.370 36.167 C 71.456 36.167,70.833 35.813,70.833 35.293 C 70.833 35.098,70.670 34.765,70.471 34.552 L 70.109 34.167 52.413 34.167 C 35.468 34.167,34.707 34.180,34.442 34.472 C 34.187 34.754,34.169 36.443,34.208 56.180 L 34.250 77.583 55.771 77.626 L 77.291 77.668 77.396 77.146 C 77.577 76.239,77.516 65.174,77.327 64.822 C 77.161 64.511,76.899 64.500,69.786 64.497 C 65.438 64.496,62.314 64.430,62.167 64.337 C 61.775 64.090,61.629 51.918,62.013 51.571 C 62.344 51.272,89.956 51.209,90.511 51.506 C 90.953 51.743,91.022 78.424,90.583 79.667 C 90.446 80.056,90.333 80.614,90.333 80.906 C 90.333 81.198,90.223 81.582,90.089 81.760 C 89.954 81.938,89.842 82.211,89.839 82.366 C 89.816 83.575,85.819 88.500,84.861 88.500 C 84.776 88.500,84.611 88.616,84.493 88.758 C 84.376 88.900,83.860 89.205,83.348 89.436 C 82.836 89.667,82.218 89.963,81.974 90.095 C 81.731 90.226,81.334 90.333,81.091 90.333 C 80.849 90.333,80.414 90.455,80.126 90.604 C 79.725 90.812,78.919 90.896,76.677 90.963 C 74.103 91.040,73.697 91.091,73.304 91.382 C 72.776 91.772,71.511 91.713,71.028 91.275 C 70.765 91.037,68.772 91.006,51.326 90.964 C 33.207 90.920,31.881 90.897,31.383 90.625 C 31.090 90.465,30.655 90.333,30.416 90.333 C 30.045 90.333,29.426 90.077,28.333 89.471 C 28.196 89.395,27.927 89.264,27.737 89.181 C 25.221 88.083,22.333 84.368,21.311 80.917 L 20.917 79.583 20.917 56.167 C 20.917 29.918,20.874 30.745,22.341 28.500 C 22.431 28.363,22.586 28.044,22.685 27.792 C 22.785 27.540,22.929 27.333,23.005 27.333 C 23.082 27.333,23.187 27.197,23.240 27.030 C 23.340 26.717,25.203 24.730,26.083 23.999 C 26.981 23.253,28.852 22.170,29.250 22.166 C 29.342 22.165,29.642 22.044,29.917 21.898 C 30.192 21.751,30.829 21.569,31.333 21.494 C 31.837 21.419,32.512 21.284,32.833 21.196 C 33.625 20.976,77.652 20.958,78.667 21.176 M17.605 33.266 C 18.380 33.474,18.645 35.430,17.963 35.907 C 16.799 36.722,15.333 36.080,15.333 34.756 C 15.333 33.389,16.125 32.869,17.605 33.266 M128.862 33.442 C 129.030 33.594,129.167 33.817,129.167 33.937 C 129.167 34.465,129.855 34.500,140.400 34.500 C 150.698 34.500,150.993 34.509,151.161 34.822 C 151.367 35.208,151.399 46.973,151.194 47.294 C 151.088 47.462,147.856 47.513,135.600 47.544 C 120.512 47.582,120.134 47.591,119.903 47.907 C 119.702 48.182,119.667 51.386,119.667 69.439 C 119.667 86.222,119.623 90.675,119.458 90.782 C 119.018 91.067,107.562 91.041,107.007 90.754 L 106.500 90.491 106.500 68.614 C 106.500 50.553,106.540 46.578,106.730 45.827 C 106.857 45.326,107.012 44.626,107.075 44.271 C 107.138 43.916,107.259 43.504,107.345 43.354 C 107.430 43.205,107.575 42.896,107.668 42.667 C 108.819 39.812,112.110 36.688,115.228 35.488 C 117.183 34.736,118.884 34.500,122.354 34.500 C 125.948 34.500,126.122 34.473,126.344 33.889 C 126.612 33.184,128.254 32.892,128.862 33.442 M184.167 33.382 C 184.396 33.497,184.606 33.751,184.634 33.946 C 184.714 34.497,184.682 34.495,198.132 34.498 C 212.473 34.500,212.549 34.507,215.650 35.948 C 216.545 36.364,216.732 36.485,217.345 37.042 C 217.522 37.202,217.725 37.333,217.796 37.333 C 218.352 37.333,222.167 42.103,222.167 42.799 C 222.167 42.927,222.271 43.231,222.398 43.474 C 223.053 44.726,223.061 44.984,223.116 68.192 L 223.169 90.633 222.643 90.817 C 222.272 90.946,216.598 91.000,203.447 91.000 C 186.349 91.000,184.751 91.023,184.473 91.274 C 183.981 91.719,182.562 91.781,182.117 91.376 C 181.797 91.085,181.440 91.031,179.306 90.949 C 177.562 90.883,176.716 90.781,176.355 90.595 C 176.077 90.451,175.701 90.333,175.518 90.333 C 175.086 90.333,172.451 89.092,172.173 88.758 C 172.056 88.616,171.856 88.500,171.731 88.500 C 171.499 88.500,169.298 86.387,168.446 85.346 C 167.530 84.227,166.515 81.837,166.160 79.961 C 165.732 77.702,165.719 56.956,166.145 56.442 C 166.356 56.189,168.084 56.167,187.923 56.167 C 199.776 56.167,209.591 56.121,209.736 56.066 C 210.110 55.922,210.135 48.414,209.763 47.907 C 209.532 47.590,209.094 47.583,187.972 47.546 L 166.417 47.509 166.125 47.153 C 165.637 46.556,165.684 35.677,166.178 34.984 L 166.523 34.500 173.856 34.500 C 181.045 34.500,181.833 34.447,181.833 33.966 C 181.833 33.260,183.232 32.910,184.167 33.382 M295.319 33.625 C 295.508 33.877,295.742 34.177,295.838 34.292 C 295.958 34.435,296.581 34.500,297.830 34.500 C 299.519 34.500,299.666 34.526,299.907 34.870 C 300.213 35.307,300.308 90.185,300.004 90.667 C 299.880 90.862,299.383 90.930,297.739 90.976 C 295.898 91.028,295.589 91.078,295.297 91.370 C 294.891 91.776,293.359 91.726,292.878 91.291 C 292.642 91.078,292.082 91.014,290.067 90.971 C 288.244 90.932,287.474 90.854,287.275 90.688 C 287.021 90.477,287.000 88.306,287.000 62.865 L 287.000 35.271 287.362 34.886 C 287.706 34.520,287.839 34.500,289.987 34.497 C 292.420 34.495,292.490 34.477,292.786 33.804 C 293.123 33.036,294.790 32.918,295.319 33.625 M350.409 33.330 C 350.646 33.420,350.907 33.673,350.990 33.891 C 351.215 34.483,351.354 34.500,355.820 34.500 C 359.896 34.500,362.430 34.774,363.469 35.326 C 363.623 35.409,364.125 35.647,364.583 35.855 C 368.426 37.603,371.555 41.648,372.172 45.667 C 373.004 51.091,373.319 50.833,365.848 50.833 C 359.045 50.833,359.336 50.903,359.328 49.282 C 359.318 47.393,361.060 47.583,343.768 47.583 C 331.180 47.583,328.672 47.621,328.439 47.814 C 328.191 48.021,328.166 48.478,328.205 52.064 L 328.250 56.083 344.667 56.167 C 357.288 56.231,361.192 56.298,361.553 56.458 C 361.811 56.573,362.270 56.667,362.574 56.667 C 362.877 56.667,363.214 56.773,363.323 56.904 C 363.431 57.034,363.811 57.190,364.167 57.250 C 364.523 57.310,364.903 57.466,365.011 57.596 C 365.119 57.727,365.296 57.833,365.403 57.833 C 365.511 57.833,365.745 57.945,365.924 58.081 C 368.081 59.718,368.727 60.289,369.269 61.038 C 369.619 61.521,369.946 61.954,369.995 62.000 C 370.252 62.242,370.833 63.180,370.833 63.355 C 370.833 63.466,370.934 63.675,371.058 63.820 C 371.182 63.965,371.412 64.458,371.570 64.917 C 371.845 65.710,371.940 66.172,372.349 68.667 C 372.579 70.068,372.462 78.163,372.188 79.833 C 371.911 81.525,371.012 83.835,370.384 84.470 C 370.265 84.591,370.167 84.759,370.167 84.843 C 370.167 85.443,366.783 88.673,365.639 89.165 C 365.425 89.257,365.137 89.395,365.000 89.471 C 363.907 90.077,363.288 90.333,362.917 90.333 C 362.679 90.333,362.243 90.463,361.950 90.621 C 361.485 90.872,360.751 90.917,356.255 90.971 C 351.490 91.028,351.063 91.057,350.691 91.350 C 350.152 91.774,349.011 91.771,348.468 91.344 C 348.074 91.034,347.640 91.020,337.063 90.969 C 326.925 90.921,326.034 90.894,325.623 90.625 C 325.379 90.465,324.997 90.333,324.776 90.333 C 323.122 90.333,318.055 86.575,317.322 84.805 C 317.214 84.546,317.069 84.333,317.000 84.333 C 316.331 84.333,315.186 79.941,315.155 77.254 C 315.122 74.408,314.503 74.644,321.865 74.702 C 328.713 74.757,328.160 74.605,328.164 76.439 C 328.166 77.530,328.198 77.636,328.542 77.728 C 329.517 77.990,358.804 77.839,359.071 77.571 C 359.404 77.239,359.463 70.468,359.140 69.758 L 358.946 69.333 342.932 69.331 C 326.173 69.328,327.001 69.358,324.333 68.667 C 320.500 67.676,316.394 63.161,315.435 58.884 C 315.104 57.406,315.040 46.781,315.354 45.300 C 316.246 41.083,319.791 36.980,323.877 35.437 C 326.214 34.555,327.008 34.500,337.567 34.498 C 348.041 34.495,348.120 34.491,348.199 33.946 C 348.293 33.297,349.463 32.971,350.409 33.330 M179.268 69.597 C 179.013 70.262,179.160 77.628,179.430 77.732 C 179.775 77.864,209.392 77.864,209.736 77.732 C 210.055 77.610,210.138 70.236,209.827 69.656 C 209.584 69.200,179.442 69.142,179.268 69.597 M17.963 88.926 C 18.409 89.239,18.484 90.704,18.081 91.236 C 17.700 91.739,16.148 91.815,15.686 91.352 C 14.670 90.337,15.384 88.667,16.833 88.667 C 17.251 88.667,17.759 88.783,17.963 88.926 M128.923 89.007 C 129.780 89.954,129.141 91.669,127.933 91.664 C 126.624 91.659,126.011 90.965,126.240 89.746 C 126.447 88.642,128.164 88.169,128.923 89.007 M239.796 88.926 C 240.309 89.285,240.333 90.834,239.833 91.333 C 239.292 91.874,237.714 91.729,237.294 91.100 C 236.332 89.659,238.345 87.910,239.796 88.926 " stroke="none" fill="#fbfbfb" fill-rule="evenodd"></path><path id="path2" d="M238.934 16.764 C 238.879 16.909,238.833 20.509,238.833 24.765 C 238.833 32.907,238.769 33.608,237.981 34.095 C 237.744 34.242,237.809 35.469,238.061 35.617 C 238.859 36.085,238.833 35.357,238.833 57.387 C 238.833 79.446,238.833 79.451,239.677 81.917 C 240.677 84.838,243.349 87.999,245.833 89.198 C 247.193 89.854,248.005 90.167,248.366 90.173 C 248.577 90.176,248.938 90.286,249.167 90.417 C 249.396 90.548,249.958 90.653,250.417 90.650 C 251.427 90.645,251.063 90.450,249.518 90.170 C 248.966 90.070,248.305 89.879,248.049 89.745 C 247.793 89.611,247.494 89.502,247.384 89.501 C 247.144 89.500,245.153 88.370,244.917 88.101 C 244.825 87.997,244.428 87.660,244.035 87.353 C 243.642 87.046,242.985 86.373,242.576 85.856 C 241.590 84.614,241.613 84.646,241.365 84.167 C 241.246 83.938,240.989 83.450,240.792 83.083 C 240.596 82.717,240.251 81.854,240.025 81.167 L 239.615 79.917 239.516 57.000 C 239.382 26.034,239.469 17.056,239.907 16.736 C 240.208 16.516,240.190 16.500,239.633 16.500 C 239.242 16.500,239.001 16.591,238.934 16.764 M287.101 16.764 C 286.895 17.300,286.988 28.922,287.200 29.133 C 287.349 29.282,288.804 29.324,292.908 29.296 L 298.417 29.259 293.202 29.171 C 288.815 29.097,287.962 29.044,287.830 28.833 C 287.738 28.689,287.671 26.149,287.669 22.801 L 287.667 17.019 288.037 16.759 C 288.402 16.504,288.398 16.500,287.805 16.500 C 287.409 16.500,287.168 16.590,287.101 16.764 M33.138 21.317 C 32.618 21.373,32.130 21.482,32.055 21.558 C 31.979 21.635,32.404 21.647,33.000 21.584 C 33.596 21.521,43.683 21.419,55.417 21.357 L 76.750 21.246 55.417 21.231 C 43.683 21.222,33.658 21.261,33.138 21.317 M30.106 21.918 C 29.843 22.055,29.535 22.167,29.421 22.167 C 29.073 22.167,26.760 23.415,26.153 23.931 C 25.178 24.758,23.341 26.713,23.240 27.030 C 23.187 27.197,23.082 27.333,23.005 27.333 C 22.929 27.333,22.785 27.540,22.685 27.792 C 22.586 28.044,22.431 28.363,22.341 28.500 C 20.874 30.745,20.917 29.918,20.917 56.167 L 20.917 79.583 21.311 80.917 C 22.185 83.868,23.914 86.417,26.223 88.161 C 27.240 88.929,29.649 90.167,30.126 90.167 C 30.309 90.167,30.729 90.279,31.058 90.417 C 31.624 90.653,33.166 90.777,32.958 90.569 C 32.904 90.515,32.273 90.335,31.555 90.168 C 30.102 89.831,29.154 89.502,28.810 89.217 C 28.684 89.112,28.376 88.975,28.124 88.912 C 27.872 88.849,27.667 88.745,27.667 88.681 C 27.667 88.617,27.160 88.195,26.542 87.743 C 25.326 86.855,25.223 86.751,24.071 85.250 C 21.330 81.676,21.440 82.889,21.427 56.083 C 21.415 29.728,21.278 31.657,23.451 27.583 C 24.589 25.451,28.533 22.605,31.417 21.834 C 31.902 21.705,31.898 21.700,31.250 21.685 C 30.883 21.676,30.369 21.781,30.106 21.918 M16.033 34.792 L 16.083 35.583 16.750 35.583 L 17.417 35.583 17.467 34.792 L 17.518 34.000 16.750 34.000 L 15.982 34.000 16.033 34.792 M70.894 34.280 C 71.150 34.415,71.382 34.725,71.465 35.045 C 71.664 35.813,73.049 35.882,73.136 35.129 C 73.165 34.879,73.361 34.538,73.572 34.372 C 73.949 34.075,73.926 34.070,72.209 34.062 C 70.640 34.055,70.506 34.077,70.894 34.280 M77.259 34.277 C 77.336 34.445,77.440 35.746,77.491 37.167 C 77.542 38.587,77.644 39.844,77.718 39.958 C 77.823 40.120,79.176 40.158,83.718 40.129 L 89.583 40.092 84.067 40.004 C 77.335 39.897,78.022 40.260,77.962 36.775 L 77.917 34.083 77.518 34.027 C 77.184 33.980,77.142 34.020,77.259 34.277 M126.500 34.442 C 125.773 34.828,125.635 34.840,122.083 34.832 C 115.759 34.817,112.468 36.017,109.885 39.280 C 109.627 39.605,109.247 40.069,109.039 40.310 C 108.831 40.552,108.509 41.050,108.322 41.417 C 108.136 41.783,107.917 42.196,107.836 42.333 C 107.514 42.878,107.189 43.690,107.086 44.207 C 107.027 44.505,106.868 45.237,106.733 45.833 C 106.290 47.787,106.466 90.566,106.917 90.631 C 107.249 90.679,107.250 90.584,107.250 68.048 L 107.250 45.417 107.632 44.333 C 109.322 39.547,113.115 36.152,117.805 35.227 C 118.885 35.014,121.502 34.971,134.667 34.950 C 149.843 34.926,149.977 34.923,139.805 34.838 L 129.361 34.750 128.854 34.375 C 128.213 33.901,127.481 33.922,126.500 34.442 M182.113 34.384 C 181.645 34.748,181.592 34.750,173.973 34.780 C 166.776 34.809,166.289 34.830,166.074 35.114 C 165.785 35.495,165.722 46.481,166.006 47.011 C 166.109 47.204,166.354 47.333,166.615 47.333 C 167.027 47.333,167.036 47.316,166.776 47.029 C 166.530 46.757,166.500 46.090,166.500 40.963 L 166.500 35.203 166.949 35.090 C 167.196 35.028,177.115 34.965,188.991 34.949 C 208.128 34.924,209.124 34.911,197.750 34.835 L 184.917 34.750 184.215 34.375 C 183.343 33.909,182.721 33.912,182.113 34.384 M293.167 34.376 C 292.633 34.718,292.368 34.752,290.037 34.775 C 288.309 34.793,287.411 34.866,287.245 35.005 C 286.796 35.377,286.967 90.567,287.417 90.631 C 287.749 90.679,287.750 90.596,287.707 62.974 C 287.682 46.458,287.726 35.207,287.817 35.117 C 287.901 35.032,290.473 34.954,293.609 34.941 C 296.712 34.928,298.462 34.877,297.500 34.830 C 295.844 34.747,295.000 34.521,295.000 34.161 C 295.000 33.852,293.755 33.998,293.167 34.376 M348.349 34.429 L 347.614 34.833 337.412 34.833 C 325.164 34.833,325.122 34.837,322.292 36.257 C 318.966 37.925,316.132 41.618,315.354 45.300 C 315.040 46.781,315.104 57.406,315.435 58.884 C 316.467 63.486,320.208 67.412,324.805 68.717 C 326.077 69.078,326.166 69.080,341.917 69.085 L 357.750 69.092 342.417 68.994 C 323.732 68.875,324.620 68.990,320.863 66.194 C 318.016 64.075,316.334 61.178,315.815 57.500 C 315.520 55.410,315.703 45.740,316.052 44.938 C 316.207 44.583,316.333 44.149,316.333 43.974 C 316.333 42.170,319.856 38.066,322.746 36.502 C 325.503 35.010,325.538 35.008,343.766 34.959 C 352.557 34.936,357.837 34.879,355.500 34.833 C 351.471 34.754,351.217 34.731,350.615 34.375 C 349.818 33.904,349.279 33.917,348.349 34.429 M262.500 34.833 L 252.417 34.921 262.635 34.960 C 269.415 34.987,272.818 34.944,272.750 34.833 C 272.693 34.742,272.633 34.685,272.615 34.706 C 272.598 34.728,268.046 34.785,262.500 34.833 M258.125 47.292 C 260.806 47.317,265.194 47.317,267.875 47.292 C 270.556 47.266,268.362 47.245,263.000 47.245 C 257.637 47.245,255.444 47.266,258.125 47.292 M358.428 47.314 C 359.023 47.578,359.333 48.247,359.333 49.267 C 359.333 50.654,359.034 50.595,365.545 50.501 L 371.250 50.419 365.583 50.334 L 359.917 50.250 359.811 48.944 C 359.689 47.451,359.654 47.395,358.750 47.260 C 358.271 47.189,358.180 47.204,358.428 47.314 M209.655 47.772 C 210.102 48.342,210.197 55.660,209.762 56.095 C 209.558 56.299,206.411 56.333,187.841 56.333 L 166.158 56.333 165.996 56.761 C 165.644 57.685,165.792 78.033,166.164 79.988 C 166.517 81.840,167.538 84.236,168.446 85.346 C 169.166 86.226,171.483 88.500,171.660 88.500 C 171.746 88.500,172.139 88.716,172.533 88.979 C 172.927 89.243,173.438 89.515,173.667 89.585 C 173.896 89.655,174.231 89.814,174.412 89.939 C 174.593 90.064,174.941 90.167,175.185 90.167 C 175.429 90.167,175.843 90.279,176.106 90.416 C 176.369 90.553,176.921 90.663,177.333 90.661 C 178.293 90.655,177.944 90.449,176.519 90.177 C 175.933 90.066,175.333 89.908,175.185 89.827 C 175.038 89.746,174.467 89.477,173.917 89.229 C 173.367 88.981,172.879 88.731,172.833 88.674 C 172.787 88.617,172.514 88.423,172.226 88.244 C 169.614 86.614,167.276 82.991,166.758 79.771 C 166.335 77.143,166.376 57.164,166.805 56.776 C 167.085 56.522,168.835 56.500,188.513 56.495 C 206.046 56.490,209.969 56.449,210.208 56.268 C 210.472 56.068,210.500 55.664,210.500 52.117 C 210.500 47.844,210.419 47.333,209.742 47.333 L 209.309 47.333 209.655 47.772 M61.918 51.664 C 61.727 51.973,61.828 63.877,62.024 64.113 C 62.171 64.290,63.685 64.333,69.691 64.333 L 77.175 64.333 77.345 64.781 C 77.621 65.507,77.477 77.376,77.188 77.725 C 76.905 78.066,77.465 78.135,77.800 77.800 C 78.087 77.513,78.087 64.654,77.800 64.367 C 77.651 64.217,75.764 64.167,70.337 64.167 C 64.033 64.167,63.025 64.132,62.704 63.907 L 62.333 63.648 62.333 57.671 C 62.333 53.046,62.380 51.675,62.542 51.610 C 62.656 51.564,62.586 51.520,62.385 51.513 C 62.184 51.506,61.974 51.574,61.918 51.664 M336.471 56.458 C 340.717 56.483,347.617 56.483,351.804 56.458 C 355.991 56.433,352.517 56.413,344.083 56.413 C 335.650 56.413,332.224 56.434,336.471 56.458 M186.792 69.125 C 190.848 69.150,197.485 69.150,201.542 69.125 C 205.598 69.100,202.279 69.080,194.167 69.080 C 186.054 69.080,182.735 69.100,186.792 69.125 M209.746 69.492 C 210.141 70.257,210.120 77.404,209.720 77.804 C 209.464 78.060,208.191 78.090,194.429 78.168 L 179.417 78.254 194.699 78.293 L 209.981 78.333 210.241 77.963 C 210.629 77.408,210.627 69.651,210.238 69.262 C 209.756 68.780,209.451 68.922,209.746 69.492 M358.544 69.115 C 359.399 69.338,359.804 76.715,359.015 77.690 L 358.696 78.083 343.723 78.169 L 328.750 78.254 344.021 78.294 C 358.053 78.330,359.311 78.311,359.521 78.058 C 359.702 77.840,359.750 76.892,359.750 73.552 C 359.750 68.916,359.766 68.988,358.750 69.022 C 358.468 69.031,358.378 69.072,358.544 69.115 M315.337 75.079 C 314.522 76.061,316.009 84.333,317.000 84.333 C 317.069 84.333,317.214 84.546,317.322 84.805 C 317.586 85.444,319.906 87.839,320.833 88.431 C 322.001 89.177,322.232 89.313,322.500 89.418 C 322.637 89.472,323.027 89.663,323.366 89.842 C 323.705 90.020,324.193 90.169,324.450 90.173 C 324.707 90.176,325.104 90.286,325.333 90.417 C 325.563 90.548,326.125 90.650,326.583 90.643 L 327.417 90.632 326.750 90.412 C 326.383 90.291,325.870 90.187,325.609 90.179 C 325.155 90.167,324.880 90.066,323.167 89.278 C 320.808 88.193,318.067 85.522,317.065 83.333 C 316.547 82.201,316.333 81.650,316.333 81.446 C 316.333 81.315,316.213 80.919,316.066 80.567 C 315.707 79.709,315.632 75.397,315.972 75.185 C 316.149 75.075,316.138 75.025,315.917 74.940 C 315.553 74.800,315.572 74.796,315.337 75.079 M262.583 78.167 L 252.583 78.254 262.718 78.294 C 269.442 78.320,272.818 78.277,272.750 78.167 C 272.693 78.075,272.633 78.018,272.615 78.040 C 272.598 78.062,268.083 78.119,262.583 78.167 M16.032 90.115 L 16.083 90.917 16.750 90.917 L 17.417 90.917 17.417 90.167 L 17.417 89.417 16.699 89.365 L 15.981 89.313 16.032 90.115 M127.175 89.573 C 126.621 90.241,127.294 91.195,128.116 90.907 C 128.643 90.723,128.887 89.742,128.471 89.478 C 128.122 89.257,127.393 89.310,127.175 89.573 M237.932 89.750 C 237.721 90.589,237.968 91.000,238.682 91.000 C 239.231 91.000,239.343 90.938,239.432 90.583 C 239.642 89.745,239.395 89.333,238.682 89.333 C 238.132 89.333,238.021 89.395,237.932 89.750 M71.083 90.842 C 71.408 90.973,73.292 91.061,73.153 90.939 C 73.115 90.905,72.558 90.839,71.917 90.792 C 71.249 90.743,70.893 90.765,71.083 90.842 M182.040 90.862 C 182.156 90.935,182.700 90.990,183.250 90.984 C 184.467 90.971,184.288 90.880,182.874 90.793 C 182.300 90.758,181.925 90.788,182.040 90.862 M292.965 90.863 C 293.122 90.926,293.662 90.977,294.167 90.977 C 294.671 90.977,295.212 90.926,295.369 90.863 C 295.526 90.801,294.985 90.750,294.167 90.750 C 293.349 90.750,292.808 90.801,292.965 90.863 M349.667 90.833 L 348.583 90.942 349.583 90.969 C 350.133 90.983,350.696 90.922,350.833 90.833 C 350.971 90.744,351.008 90.684,350.917 90.698 C 350.825 90.712,350.262 90.773,349.667 90.833 " stroke="none" fill="#bbc490" fill-rule="evenodd"></path><path id="path3" d="M245.489 16.625 C 250.225 16.666,250.933 16.705,251.198 16.945 C 251.482 17.202,251.500 17.726,251.500 25.830 L 251.500 34.442 251.884 34.803 L 252.269 35.164 262.759 35.207 L 273.250 35.250 273.296 41.000 C 273.341 46.696,273.338 46.753,272.986 47.042 L 272.630 47.333 272.986 47.333 C 273.601 47.333,273.667 46.719,273.667 40.926 C 273.667 36.393,273.624 35.339,273.435 35.182 C 273.266 35.042,270.439 34.992,262.892 34.997 C 253.781 35.004,252.537 34.974,252.207 34.743 L 251.833 34.481 251.833 25.750 L 251.833 17.019 251.463 16.759 C 251.143 16.535,250.343 16.505,245.588 16.539 L 240.083 16.579 245.489 16.625 M288.224 16.628 C 288.118 16.695,290.509 16.728,293.537 16.702 C 298.519 16.658,299.072 16.680,299.355 16.936 C 299.807 17.345,299.840 28.365,299.391 28.862 C 299.134 29.146,299.134 29.167,299.395 29.167 C 299.924 29.167,300.000 28.364,300.000 22.739 C 300.000 17.389,299.987 17.153,299.667 16.833 C 299.321 16.488,288.743 16.298,288.224 16.628 M34.259 21.478 C 33.990 21.536,43.756 21.583,55.962 21.583 C 68.168 21.583,78.026 21.532,77.869 21.470 C 77.509 21.327,34.925 21.335,34.259 21.478 M32.127 21.785 C 32.334 21.824,32.634 21.823,32.794 21.781 C 32.953 21.739,32.783 21.707,32.417 21.709 C 32.050 21.711,31.920 21.745,32.127 21.785 M78.792 21.787 C 79.090 21.824,79.577 21.824,79.875 21.787 C 80.173 21.750,79.929 21.720,79.333 21.720 C 78.737 21.720,78.494 21.750,78.792 21.787 M80.747 21.995 C 80.802 22.085,81.162 22.252,81.547 22.367 C 83.361 22.911,87.667 26.122,87.667 26.931 C 87.667 27.000,87.791 27.195,87.944 27.363 C 88.480 27.956,89.217 29.473,89.711 31.000 C 90.024 31.967,90.063 32.494,90.073 35.917 L 90.083 39.750 84.333 39.837 L 78.583 39.923 84.273 39.962 C 91.418 40.010,90.703 40.400,90.623 36.500 C 90.528 31.888,90.029 29.926,88.287 27.312 C 87.129 25.575,83.943 22.833,83.083 22.833 C 82.968 22.833,82.781 22.721,82.667 22.583 C 82.553 22.446,82.337 22.333,82.188 22.332 C 82.039 22.332,81.702 22.219,81.439 22.082 C 80.891 21.797,80.602 21.760,80.747 21.995 M33.781 34.422 C 33.522 34.965,33.500 36.662,33.502 56.047 C 33.505 78.289,33.490 77.849,34.254 77.963 C 34.556 78.008,34.559 77.997,34.292 77.831 C 34.037 77.673,33.789 34.368,34.042 34.127 C 34.065 34.105,42.521 34.048,52.833 34.000 L 71.583 33.914 52.823 33.874 L 34.062 33.833 33.781 34.422 M74.208 33.957 C 74.827 33.989,75.840 33.989,76.458 33.957 C 77.077 33.925,76.571 33.899,75.333 33.899 C 74.096 33.899,73.590 33.925,74.208 33.957 M71.958 34.118 C 72.165 34.157,72.502 34.157,72.708 34.118 C 72.915 34.078,72.746 34.045,72.333 34.045 C 71.921 34.045,71.752 34.078,71.958 34.118 M122.417 35.000 C 120.308 35.046,125.773 35.103,134.561 35.127 C 143.349 35.151,150.605 35.212,150.686 35.262 C 151.004 35.459,150.864 46.965,150.542 47.153 C 150.270 47.312,150.269 47.324,150.536 47.328 C 150.693 47.331,150.899 47.188,150.994 47.011 C 151.194 46.637,151.235 35.532,151.037 35.221 C 150.900 35.006,129.668 34.842,122.417 35.000 M174.333 35.000 C 170.004 35.049,176.145 35.103,189.083 35.132 C 201.275 35.158,211.550 35.243,211.917 35.320 C 213.039 35.557,214.441 35.961,214.770 36.144 C 214.943 36.239,215.346 36.433,215.667 36.575 C 215.987 36.717,216.468 37.020,216.734 37.250 C 217.001 37.479,217.265 37.667,217.322 37.667 C 217.583 37.667,219.703 39.894,220.276 40.771 C 220.628 41.310,220.955 41.787,221.003 41.833 C 221.127 41.952,221.465 42.734,221.975 44.083 L 222.417 45.250 222.417 67.833 L 222.417 90.417 203.500 90.501 L 184.583 90.586 203.667 90.585 L 222.750 90.583 222.750 68.250 C 222.750 51.724,222.699 45.678,222.553 45.000 C 222.195 43.327,221.424 41.636,220.500 40.495 C 217.106 36.305,214.652 35.162,208.833 35.061 C 202.559 34.952,181.840 34.916,174.333 35.000 M290.253 34.951 C 288.972 34.984,287.869 35.064,287.803 35.130 C 287.737 35.196,289.010 35.200,290.633 35.139 C 293.467 35.032,298.510 35.105,299.292 35.264 L 299.668 35.340 299.625 62.878 L 299.583 90.417 297.583 90.508 L 295.583 90.600 297.629 90.633 L 299.675 90.667 299.837 90.239 C 300.101 89.546,300.056 35.419,299.792 35.208 C 299.555 35.018,293.776 34.863,290.253 34.951 M337.750 35.002 C 328.399 35.079,329.006 35.089,344.138 35.112 C 353.335 35.126,360.835 35.117,360.805 35.091 C 360.670 34.977,347.151 34.924,337.750 35.002 M361.417 35.272 C 366.025 36.538,368.869 38.885,370.784 43.000 C 370.976 43.413,371.185 44.050,371.248 44.417 C 371.311 44.783,371.427 45.161,371.506 45.256 C 371.780 45.588,371.911 50.124,371.649 50.208 C 371.472 50.264,371.476 50.278,371.667 50.263 C 372.128 50.229,372.017 45.728,371.516 44.167 C 370.087 39.710,365.736 35.691,361.881 35.268 C 361.442 35.220,361.233 35.222,361.417 35.272 M119.625 47.347 C 119.350 47.507,119.333 48.696,119.333 68.584 C 119.333 84.156,119.283 89.761,119.141 90.073 L 118.948 90.496 113.099 90.542 L 107.250 90.588 113.274 90.627 C 118.636 90.662,119.309 90.638,119.399 90.403 C 119.454 90.258,119.500 80.587,119.500 68.913 C 119.500 52.115,119.543 47.658,119.708 47.552 C 119.823 47.477,126.667 47.378,134.917 47.332 L 149.917 47.246 134.917 47.212 C 124.967 47.189,119.818 47.234,119.625 47.347 M177.721 47.292 C 183.664 47.316,193.339 47.316,199.221 47.292 C 205.104 47.267,200.242 47.248,188.417 47.248 C 176.592 47.248,171.779 47.267,177.721 47.292 M251.776 47.471 C 251.438 47.845,251.345 76.671,251.678 77.628 C 251.955 78.423,251.817 78.412,262.833 78.500 L 273.250 78.583 273.294 84.540 L 273.338 90.498 262.210 90.542 L 251.083 90.586 262.271 90.626 L 273.458 90.667 273.563 90.146 C 273.767 89.123,273.682 78.748,273.467 78.533 C 273.315 78.382,270.761 78.333,262.989 78.333 C 252.844 78.333,252.706 78.329,252.272 77.988 L 251.833 77.642 251.833 62.675 C 251.833 46.352,251.764 47.419,252.834 47.290 C 253.410 47.221,253.409 47.220,252.734 47.193 C 252.260 47.175,251.968 47.259,251.776 47.471 M328.074 47.403 C 327.748 47.641,327.464 54.837,327.738 55.927 C 327.921 56.658,328.117 56.667,343.900 56.665 C 359.012 56.663,361.711 56.750,362.692 57.267 C 362.936 57.395,363.222 57.500,363.328 57.500 C 363.700 57.500,365.794 58.595,366.304 59.056 C 366.472 59.209,366.664 59.333,366.731 59.333 C 367.182 59.333,370.500 63.377,370.500 63.927 C 370.500 63.993,370.641 64.355,370.813 64.732 C 371.666 66.600,371.878 68.837,371.797 75.109 C 371.753 78.456,371.673 80.041,371.541 80.201 C 371.435 80.329,371.295 80.767,371.231 81.175 C 371.167 81.583,371.022 82.067,370.908 82.250 C 370.794 82.433,370.648 82.763,370.582 82.982 C 370.254 84.075,367.795 87.113,366.528 87.990 C 365.629 88.612,364.370 89.288,363.395 89.673 C 363.154 89.768,362.990 89.879,363.030 89.919 C 363.070 89.959,363.437 89.862,363.845 89.704 C 367.357 88.342,370.210 85.279,371.427 81.564 L 372.000 79.814 372.000 73.603 C 372.000 66.841,371.949 66.419,370.845 63.968 C 369.719 61.469,366.511 58.389,364.181 57.572 C 363.761 57.424,363.275 57.228,363.102 57.136 C 362.084 56.594,359.664 56.511,344.250 56.489 C 335.817 56.477,328.729 56.415,328.500 56.351 L 328.083 56.235 328.039 52.004 C 328.009 49.170,328.053 47.714,328.172 47.595 C 328.294 47.472,333.033 47.390,343.300 47.332 L 358.250 47.246 343.324 47.207 C 330.657 47.173,328.348 47.202,328.074 47.403 M76.417 51.665 L 90.083 51.750 90.126 64.973 C 90.178 80.980,90.222 80.503,88.334 84.174 C 87.393 86.002,84.129 88.661,81.603 89.657 C 81.340 89.761,81.171 89.893,81.229 89.951 C 81.287 90.009,81.502 89.976,81.709 89.879 C 81.915 89.782,82.533 89.490,83.083 89.231 C 84.878 88.385,88.500 85.187,88.500 84.449 C 88.500 84.393,88.712 83.988,88.971 83.549 C 90.588 80.802,90.667 79.938,90.667 64.867 L 90.667 51.825 90.239 51.663 C 89.971 51.561,84.771 51.515,76.281 51.540 L 62.750 51.580 76.417 51.665 M166.942 56.625 C 166.872 56.738,181.687 56.737,202.167 56.623 C 206.429 56.599,200.265 56.562,188.468 56.540 C 176.671 56.518,166.985 56.556,166.942 56.625 M62.891 64.039 C 62.997 64.106,66.308 64.146,70.250 64.128 C 74.192 64.110,76.517 64.074,75.417 64.048 C 70.468 63.934,62.716 63.928,62.891 64.039 M178.700 69.200 C 178.555 69.345,178.500 70.542,178.500 73.541 L 178.500 77.682 178.909 78.091 L 179.318 78.500 194.534 78.459 L 209.750 78.418 194.676 78.375 L 179.603 78.332 179.218 77.970 C 178.689 77.473,178.604 69.483,179.125 69.180 C 179.365 69.040,179.371 69.009,179.158 69.005 C 179.016 69.002,178.810 69.090,178.700 69.200 M321.652 75.125 C 327.975 75.177,327.605 75.083,327.695 76.671 C 327.805 78.609,326.047 78.416,343.631 78.420 L 358.917 78.423 343.750 78.334 C 335.408 78.285,328.570 78.228,328.554 78.206 C 328.537 78.184,328.406 78.049,328.262 77.905 C 328.082 77.725,328.000 77.330,328.000 76.644 C 328.000 74.861,328.509 74.994,321.869 75.039 L 316.083 75.079 321.652 75.125 M45.208 78.125 C 51.052 78.149,60.615 78.149,66.458 78.125 C 72.302 78.101,67.521 78.081,55.833 78.081 C 44.146 78.081,39.365 78.101,45.208 78.125 M79.333 90.211 C 79.104 90.316,77.754 90.447,76.333 90.502 L 73.750 90.603 76.178 90.635 C 77.873 90.657,78.854 90.595,79.428 90.428 C 79.880 90.297,80.438 90.157,80.667 90.118 C 80.932 90.072,80.840 90.041,80.417 90.033 C 80.050 90.027,79.563 90.107,79.333 90.211 M361.250 90.214 C 360.953 90.324,358.791 90.439,355.917 90.497 L 351.083 90.595 355.864 90.631 C 358.981 90.654,360.808 90.604,361.114 90.486 C 361.372 90.387,361.883 90.245,362.250 90.171 L 362.917 90.037 362.333 90.033 C 362.012 90.030,361.525 90.112,361.250 90.214 M42.375 90.625 C 47.577 90.649,56.090 90.649,61.292 90.625 C 66.494 90.601,62.237 90.581,51.833 90.581 C 41.429 90.581,37.173 90.601,42.375 90.625 M178.875 90.623 C 179.402 90.656,180.265 90.656,180.792 90.623 C 181.319 90.590,180.887 90.563,179.833 90.563 C 178.779 90.563,178.348 90.590,178.875 90.623 M289.049 90.624 C 289.764 90.655,290.889 90.655,291.549 90.624 C 292.210 90.592,291.625 90.566,290.250 90.567 C 288.875 90.567,288.335 90.593,289.049 90.624 M332.458 90.625 C 335.323 90.650,340.010 90.650,342.875 90.625 C 345.740 90.599,343.396 90.578,337.667 90.578 C 331.938 90.578,329.594 90.599,332.458 90.625 M71.792 90.787 C 72.090 90.824,72.577 90.824,72.875 90.787 C 73.173 90.750,72.929 90.720,72.333 90.720 C 71.737 90.720,71.494 90.750,71.792 90.787 M182.621 90.787 C 182.917 90.824,183.442 90.824,183.788 90.788 C 184.134 90.752,183.892 90.722,183.250 90.721 C 182.608 90.721,182.325 90.750,182.621 90.787 M293.625 90.787 C 293.923 90.824,294.410 90.824,294.708 90.787 C 295.006 90.750,294.762 90.720,294.167 90.720 C 293.571 90.720,293.327 90.750,293.625 90.787 M348.955 90.787 C 349.250 90.824,349.775 90.824,350.121 90.788 C 350.467 90.752,350.225 90.722,349.583 90.721 C 348.942 90.721,348.659 90.750,348.955 90.787 " stroke="none" fill="#51c4d2" fill-rule="evenodd"></path><path id="path4" d="M239.583 16.329 C 239.382 16.418,241.589 16.481,245.171 16.488 C 250.248 16.498,251.145 16.537,251.463 16.759 L 251.833 17.019 251.833 25.739 C 251.833 32.920,251.874 34.493,252.062 34.649 C 252.227 34.786,255.103 34.836,262.486 34.831 C 268.094 34.827,272.754 34.867,272.841 34.921 C 272.929 34.975,273.000 34.966,273.000 34.901 C 273.000 34.835,273.150 34.917,273.333 35.083 C 273.707 35.422,273.860 45.970,273.504 46.906 L 273.342 47.333 262.787 47.333 C 254.801 47.333,252.185 47.382,252.033 47.533 C 251.650 47.917,251.755 77.544,252.141 77.893 C 252.421 78.147,253.342 78.171,262.566 78.164 C 270.511 78.158,272.780 78.203,273.133 78.372 L 273.583 78.588 273.632 83.919 C 273.660 86.851,273.636 89.569,273.581 89.958 L 273.480 90.667 261.531 90.690 C 254.960 90.703,249.996 90.771,250.500 90.840 C 252.894 91.171,273.315 91.018,273.667 90.667 C 273.987 90.346,274.000 90.111,274.000 84.572 C 274.000 78.868,273.952 78.307,273.433 77.961 C 273.333 77.894,268.587 77.837,262.887 77.836 C 253.690 77.834,252.494 77.804,252.262 77.571 C 251.954 77.264,251.858 48.316,252.163 47.833 C 252.301 47.616,253.707 47.579,262.936 47.549 C 270.365 47.526,273.606 47.461,273.734 47.333 C 274.133 46.934,274.066 35.462,273.662 34.948 L 273.311 34.502 262.697 34.460 L 252.083 34.417 252.040 25.561 C 252.001 17.582,251.970 16.683,251.723 16.478 C 251.401 16.210,240.163 16.073,239.583 16.329 M287.833 16.329 C 287.597 16.407,289.994 16.474,293.375 16.483 C 299.135 16.499,299.345 16.511,299.673 16.839 C 300.097 17.264,300.122 28.611,299.700 29.034 C 299.535 29.199,298.102 29.273,293.617 29.346 L 287.750 29.441 293.778 29.429 C 297.093 29.422,299.868 29.354,299.945 29.278 C 300.216 29.006,300.208 16.954,299.936 16.581 C 299.675 16.225,288.835 15.999,287.833 16.329 M32.925 21.145 C 32.655 21.203,42.255 21.228,54.259 21.201 C 72.901 21.160,76.314 21.189,77.667 21.400 C 78.537 21.536,79.639 21.691,80.114 21.745 C 80.590 21.798,81.190 21.952,81.448 22.087 C 81.706 22.221,82.039 22.332,82.188 22.332 C 82.337 22.333,82.553 22.446,82.667 22.583 C 82.781 22.721,82.968 22.833,83.083 22.833 C 83.943 22.833,87.129 25.575,88.287 27.312 C 90.079 30.000,90.562 31.961,90.575 36.583 L 90.583 39.583 90.000 39.875 C 89.479 40.135,88.808 40.166,83.750 40.169 C 80.030 40.171,78.169 40.227,78.333 40.333 C 78.903 40.701,89.906 40.538,90.394 40.155 L 90.833 39.809 90.833 36.426 C 90.833 33.844,90.774 32.874,90.583 32.333 C 90.446 31.944,90.333 31.388,90.333 31.099 C 90.333 30.811,90.230 30.426,90.105 30.245 C 89.979 30.065,89.824 29.678,89.761 29.387 C 89.697 29.095,89.538 28.767,89.406 28.658 C 89.274 28.549,89.167 28.357,89.167 28.232 C 89.167 27.346,85.685 23.816,83.943 22.937 C 83.421 22.673,82.953 22.391,82.903 22.312 C 82.854 22.232,82.687 22.166,82.532 22.166 C 82.377 22.165,82.025 22.046,81.750 21.900 C 81.475 21.755,80.837 21.569,80.333 21.486 C 79.829 21.404,79.079 21.265,78.667 21.176 C 77.837 20.997,33.754 20.967,32.925 21.145 M30.958 21.618 C 31.165 21.657,31.502 21.657,31.708 21.618 C 31.915 21.578,31.746 21.545,31.333 21.545 C 30.921 21.545,30.752 21.578,30.958 21.618 M15.673 33.531 C 14.708 34.567,15.372 36.167,16.768 36.167 C 18.201 36.167,18.780 35.162,18.146 33.772 C 17.824 33.064,16.251 32.911,15.673 33.531 M126.873 33.339 C 126.665 33.423,126.427 33.670,126.344 33.889 C 126.122 34.473,125.953 34.499,122.278 34.510 C 119.476 34.518,114.452 35.081,116.583 35.148 C 116.767 35.154,117.217 35.085,117.583 34.995 C 117.950 34.905,119.941 34.833,122.007 34.836 C 125.694 34.840,125.779 34.832,126.590 34.421 C 127.455 33.982,128.400 33.870,128.594 34.184 C 128.971 34.794,129.542 34.826,140.318 34.837 C 150.451 34.847,150.835 34.859,150.998 35.163 C 151.229 35.595,151.226 46.578,150.994 47.011 C 150.825 47.326,150.477 47.333,135.483 47.333 C 125.229 47.333,120.038 47.391,119.822 47.506 C 119.506 47.675,119.500 48.089,119.500 68.909 C 119.500 80.586,119.454 90.258,119.399 90.403 C 119.309 90.637,118.595 90.667,113.107 90.672 C 108.828 90.675,107.007 90.729,107.208 90.846 C 107.556 91.049,119.140 90.988,119.458 90.782 C 119.623 90.675,119.667 86.222,119.667 69.439 C 119.667 51.386,119.702 48.182,119.903 47.907 C 120.134 47.591,120.512 47.582,135.600 47.544 C 147.856 47.513,151.088 47.462,151.194 47.294 C 151.399 46.973,151.367 35.208,151.161 34.822 C 150.993 34.509,150.698 34.500,140.400 34.500 C 129.855 34.500,129.167 34.465,129.167 33.937 C 129.167 33.293,127.844 32.949,126.873 33.339 M182.109 33.471 C 181.957 33.639,181.833 33.861,181.833 33.966 C 181.833 34.446,181.038 34.500,173.803 34.511 C 168.871 34.518,166.551 34.575,166.820 34.682 C 167.780 35.066,181.586 34.789,182.146 34.375 C 182.796 33.894,183.257 33.902,184.358 34.415 L 185.250 34.830 197.667 34.832 C 213.639 34.835,214.384 34.945,217.917 37.834 C 218.937 38.669,219.441 39.188,220.500 40.495 C 221.424 41.636,222.195 43.327,222.553 45.000 C 222.699 45.678,222.750 51.724,222.750 68.250 L 222.750 90.583 203.500 90.701 C 192.912 90.766,183.762 90.821,183.167 90.825 C 182.571 90.828,180.846 90.803,179.333 90.768 C 177.589 90.728,176.918 90.753,177.500 90.836 C 178.004 90.908,179.174 90.974,180.099 90.984 C 181.586 90.998,181.819 91.041,182.099 91.351 C 182.487 91.779,183.965 91.734,184.469 91.278 C 184.752 91.022,186.244 91.000,203.447 91.000 C 216.598 91.000,222.272 90.946,222.643 90.817 L 223.169 90.633 223.116 68.192 C 223.061 44.984,223.053 44.726,222.398 43.474 C 222.271 43.231,222.167 42.927,222.167 42.799 C 222.167 42.103,218.352 37.333,217.796 37.333 C 217.725 37.333,217.522 37.202,217.345 37.042 C 216.732 36.485,216.545 36.364,215.650 35.948 C 212.549 34.507,212.473 34.500,198.132 34.498 C 184.682 34.495,184.714 34.497,184.634 33.946 C 184.528 33.207,182.665 32.857,182.109 33.471 M237.576 33.576 C 236.871 34.280,237.019 35.662,237.845 36.089 C 238.596 36.477,238.792 36.247,238.167 35.711 C 237.733 35.340,237.733 34.388,238.167 33.833 C 238.766 33.067,238.291 32.860,237.576 33.576 M293.366 33.286 C 293.152 33.326,292.894 33.557,292.786 33.804 C 292.490 34.478,292.421 34.495,289.968 34.497 C 288.713 34.499,287.645 34.568,287.593 34.650 C 287.362 35.025,292.553 34.769,293.167 34.376 C 293.755 33.998,295.000 33.852,295.000 34.161 C 295.000 34.523,295.850 34.741,297.603 34.829 C 298.794 34.889,299.553 35.003,299.728 35.148 C 300.045 35.411,300.157 89.398,299.843 90.226 C 299.626 90.796,296.936 90.944,290.167 90.758 C 288.381 90.709,287.379 90.736,287.583 90.827 C 287.767 90.909,288.961 90.982,290.237 90.988 C 292.159 90.998,292.610 91.048,292.864 91.278 C 293.358 91.725,294.884 91.783,295.297 91.370 C 295.589 91.078,295.898 91.028,297.739 90.976 C 299.383 90.930,299.880 90.862,300.004 90.667 C 300.308 90.185,300.213 35.307,299.907 34.870 C 299.666 34.526,299.519 34.500,297.830 34.500 C 296.581 34.500,295.958 34.435,295.838 34.292 C 295.742 34.177,295.508 33.877,295.319 33.625 C 294.973 33.162,294.468 33.075,293.366 33.286 M348.667 33.382 C 348.438 33.497,348.227 33.751,348.199 33.946 C 348.120 34.491,348.053 34.494,337.417 34.514 C 330.512 34.526,327.160 34.592,326.588 34.724 C 325.939 34.875,328.139 34.907,336.671 34.871 L 347.583 34.826 348.390 34.413 C 349.399 33.897,349.712 33.898,350.737 34.417 C 351.540 34.825,351.635 34.833,355.363 34.833 C 362.417 34.833,365.089 35.648,368.214 38.750 C 370.847 41.363,371.917 43.985,371.917 47.825 L 371.917 50.234 371.500 50.350 C 371.271 50.414,368.590 50.474,365.542 50.483 C 361.969 50.494,360.000 50.559,360.000 50.667 C 360.000 51.059,371.570 50.874,372.079 50.473 C 372.589 50.072,372.618 48.575,372.172 45.667 C 371.555 41.648,368.426 37.603,364.583 35.855 C 364.125 35.647,363.623 35.409,363.469 35.326 C 362.430 34.774,359.896 34.500,355.820 34.500 C 351.354 34.500,351.215 34.483,350.990 33.891 C 350.735 33.220,349.517 32.953,348.667 33.382 M17.467 34.792 L 17.417 35.583 16.750 35.583 L 16.083 35.583 16.033 34.792 L 15.982 34.000 16.750 34.000 L 17.518 34.000 17.467 34.792 M34.208 34.110 C 33.810 34.271,33.914 77.609,34.313 77.822 C 34.748 78.055,76.938 78.069,77.081 77.836 C 77.151 77.723,70.130 77.654,55.718 77.626 L 34.250 77.583 34.208 56.180 C 34.169 36.443,34.187 34.754,34.442 34.472 C 34.707 34.180,35.468 34.167,52.413 34.167 L 70.109 34.167 70.471 34.552 C 70.670 34.765,70.833 35.098,70.833 35.293 C 70.833 35.813,71.456 36.167,72.370 36.167 C 73.276 36.167,73.833 35.762,73.833 35.104 C 73.833 34.466,74.269 34.258,75.816 34.154 L 77.250 34.057 75.647 34.029 C 73.843 33.996,73.235 34.263,73.136 35.129 C 73.049 35.883,71.664 35.813,71.465 35.044 C 71.179 33.941,72.252 33.999,52.383 34.013 C 42.502 34.020,34.323 34.064,34.208 34.110 M324.583 35.174 C 324.351 35.280,324.452 35.295,324.917 35.224 C 325.283 35.168,325.615 35.095,325.653 35.061 C 325.796 34.935,324.903 35.029,324.583 35.174 M166.426 47.433 C 166.737 47.563,209.471 47.588,209.391 47.458 C 209.348 47.390,199.624 47.339,187.782 47.346 C 175.939 47.354,166.329 47.393,166.426 47.433 M328.279 47.542 C 328.021 47.730,327.998 48.152,328.039 52.000 L 328.083 56.250 343.833 56.341 C 359.947 56.434,361.939 56.517,363.102 57.136 C 363.275 57.228,363.761 57.424,364.181 57.572 C 366.511 58.389,369.719 61.469,370.845 63.968 C 371.949 66.419,372.000 66.841,372.000 73.603 L 372.000 79.814 371.427 81.564 C 369.961 86.040,366.831 88.903,361.833 90.340 C 361.172 90.530,353.372 90.841,349.667 90.825 C 349.071 90.823,343.446 90.796,337.167 90.766 C 330.887 90.737,326.200 90.769,326.750 90.838 C 327.300 90.907,332.313 90.972,337.890 90.982 C 347.764 91.000,348.042 91.009,348.455 91.333 C 349.011 91.771,350.145 91.779,350.691 91.350 C 351.063 91.057,351.490 91.028,356.255 90.971 C 360.751 90.917,361.485 90.872,361.950 90.621 C 362.243 90.463,362.679 90.333,362.917 90.333 C 363.288 90.333,363.907 90.077,365.000 89.471 C 365.137 89.395,365.425 89.257,365.639 89.165 C 366.783 88.673,370.167 85.443,370.167 84.843 C 370.167 84.759,370.265 84.591,370.384 84.470 C 371.012 83.835,371.911 81.525,372.188 79.833 C 372.462 78.163,372.579 70.068,372.349 68.667 C 371.940 66.172,371.845 65.710,371.570 64.917 C 371.412 64.458,371.182 63.965,371.058 63.820 C 370.934 63.675,370.833 63.466,370.833 63.355 C 370.833 63.180,370.252 62.242,369.995 62.000 C 369.946 61.954,369.619 61.521,369.269 61.038 C 368.727 60.289,368.081 59.718,365.924 58.081 C 365.745 57.945,365.511 57.833,365.403 57.833 C 365.296 57.833,365.119 57.727,365.011 57.596 C 364.903 57.466,364.523 57.310,364.167 57.250 C 363.811 57.190,363.431 57.034,363.323 56.904 C 363.214 56.773,362.877 56.667,362.574 56.667 C 362.270 56.667,361.811 56.573,361.553 56.458 C 361.192 56.298,357.288 56.231,344.667 56.167 L 328.250 56.083 328.205 52.064 C 328.166 48.478,328.191 48.021,328.439 47.814 C 328.672 47.621,331.179 47.583,343.760 47.583 C 352.033 47.583,358.767 47.527,358.724 47.458 C 358.580 47.225,328.599 47.307,328.279 47.542 M62.198 51.420 C 62.246 51.468,68.477 51.505,76.044 51.502 C 84.697 51.498,89.963 51.557,90.234 51.661 L 90.667 51.825 90.667 64.867 C 90.667 79.938,90.588 80.802,88.971 83.549 C 88.712 83.988,88.500 84.393,88.500 84.449 C 88.500 85.187,84.878 88.385,83.083 89.231 C 81.487 89.983,81.460 89.993,80.529 90.165 C 80.040 90.256,79.553 90.386,79.445 90.454 C 79.237 90.587,73.921 90.869,72.250 90.836 C 67.221 90.737,31.780 90.740,32.417 90.840 C 32.875 90.912,41.682 90.977,51.987 90.985 C 69.004 90.999,70.751 91.025,71.022 91.270 C 71.510 91.712,72.773 91.774,73.304 91.382 C 73.697 91.091,74.103 91.040,76.677 90.963 C 78.919 90.896,79.725 90.812,80.126 90.604 C 80.414 90.455,80.849 90.333,81.091 90.333 C 81.334 90.333,81.731 90.226,81.974 90.095 C 82.218 89.963,82.836 89.667,83.348 89.436 C 83.860 89.205,84.376 88.900,84.493 88.758 C 84.611 88.616,84.776 88.500,84.861 88.500 C 85.819 88.500,89.816 83.575,89.839 82.366 C 89.842 82.211,89.954 81.938,90.089 81.760 C 90.223 81.582,90.333 81.198,90.333 80.906 C 90.333 80.614,90.446 80.056,90.583 79.667 C 91.022 78.424,90.953 51.743,90.511 51.506 C 90.180 51.329,62.022 51.244,62.198 51.420 M177.125 56.292 C 183.106 56.316,192.894 56.316,198.875 56.292 C 204.856 56.267,199.963 56.248,188.000 56.248 C 176.037 56.248,171.144 56.267,177.125 56.292 M64.917 64.453 C 71.734 64.570,77.295 64.572,77.224 64.458 C 77.182 64.390,73.795 64.350,69.698 64.371 C 65.602 64.391,63.450 64.428,64.917 64.453 M179.072 69.217 C 178.663 69.445,178.725 77.517,179.138 77.891 C 179.495 78.214,209.005 78.320,209.500 78.000 C 209.662 77.895,204.486 77.838,194.722 77.836 C 186.457 77.834,179.575 77.788,179.430 77.732 C 179.160 77.628,179.013 70.262,179.268 69.597 C 179.359 69.359,180.860 69.333,194.546 69.333 C 202.893 69.333,209.682 69.293,209.632 69.243 C 209.486 69.097,179.332 69.071,179.072 69.217 M326.259 69.189 C 326.798 69.304,359.021 69.351,358.747 69.236 C 358.654 69.197,351.195 69.146,342.173 69.124 C 333.150 69.102,325.989 69.131,326.259 69.189 M315.833 74.827 C 315.833 74.943,317.778 75.000,321.744 75.000 C 328.523 75.000,328.000 74.863,328.000 76.644 C 328.000 78.328,326.425 78.178,343.590 78.128 C 353.348 78.099,358.709 78.025,358.817 77.917 C 358.928 77.806,354.028 77.766,344.117 77.798 C 335.940 77.824,329.006 77.802,328.708 77.749 L 328.167 77.652 328.164 76.451 C 328.163 75.790,328.091 75.137,328.004 75.000 C 327.808 74.691,315.833 74.521,315.833 74.827 M15.704 88.926 C 14.531 89.748,15.447 91.754,16.939 91.630 C 19.041 91.456,18.942 88.667,16.833 88.667 C 16.416 88.667,15.907 88.783,15.704 88.926 M126.602 88.922 C 125.969 89.555,126.117 91.084,126.846 91.456 C 128.137 92.114,129.231 91.523,129.231 90.167 C 129.231 88.814,127.520 88.004,126.602 88.922 M237.500 89.000 C 236.885 89.615,237.052 91.092,237.781 91.475 C 239.052 92.144,240.167 91.498,240.167 90.093 C 240.167 88.732,238.465 88.035,237.500 89.000 M17.417 90.167 L 17.417 90.917 16.750 90.917 L 16.083 90.917 16.032 90.115 L 15.981 89.313 16.699 89.365 L 17.417 89.417 17.417 90.167 M128.471 89.478 C 128.603 89.562,128.670 89.843,128.637 90.181 C 128.537 91.227,127.153 91.299,127.030 90.265 C 126.937 89.486,127.768 89.033,128.471 89.478 M239.432 89.750 C 239.642 90.589,239.395 91.000,238.682 91.000 C 238.132 91.000,238.021 90.938,237.932 90.583 C 237.721 89.745,237.968 89.333,238.682 89.333 C 239.231 89.333,239.343 89.395,239.432 89.750 M247.813 90.213 C 247.894 90.294,248.175 90.333,248.438 90.300 C 248.879 90.245,248.867 90.233,248.292 90.153 C 247.934 90.104,247.729 90.129,247.813 90.213 " stroke="none" fill="#a5ccd8" fill-rule="evenodd"></path></g></svg>